<mxfile host="app.diagrams.net" modified="2021-01-11T22:17:50.260Z" agent="5.0 (Windows NT 10.0; Win64; x64) AppleWebKit/537.36 (KHTML, like Gecko) Chrome/86.0.4240.198 Safari/537.36 OPR/72.0.3815.459" etag="qT7cqFINNsZoRz7rpJJs" version="14.1.9" type="github">
  <diagram id="C5RBs43oDa-KdzZeNtuy" name="Page-1">
    <mxGraphModel dx="2208" dy="764" grid="1" gridSize="10" guides="1" tooltips="1" connect="1" arrows="1" fold="1" page="1" pageScale="1" pageWidth="827" pageHeight="1169" math="0" shadow="0">
      <root>
        <mxCell id="WIyWlLk6GJQsqaUBKTNV-0" />
        <mxCell id="WIyWlLk6GJQsqaUBKTNV-1" parent="WIyWlLk6GJQsqaUBKTNV-0" />
        <mxCell id="J7jY-KrecQ0L_YbWV4ig-2" value="&lt;&lt;Abstract&gt;&gt;&#xa;Pessoa" style="swimlane;fontStyle=1;align=center;verticalAlign=middle;childLayout=stackLayout;horizontal=1;startSize=26;horizontalStack=0;resizeParent=1;resizeParentMax=0;resizeLast=0;collapsible=1;marginBottom=0;labelPosition=center;verticalLabelPosition=middle;" parent="WIyWlLk6GJQsqaUBKTNV-1" vertex="1">
          <mxGeometry x="110" width="200" height="138" as="geometry">
            <mxRectangle x="150" y="120" width="70" height="26" as="alternateBounds" />
          </mxGeometry>
        </mxCell>
        <mxCell id="J7jY-KrecQ0L_YbWV4ig-3" value="- nome: String" style="text;strokeColor=none;fillColor=none;align=left;verticalAlign=top;spacingLeft=4;spacingRight=4;overflow=hidden;rotatable=0;points=[[0,0.5],[1,0.5]];portConstraint=eastwest;" parent="J7jY-KrecQ0L_YbWV4ig-2" vertex="1">
          <mxGeometry y="26" width="200" height="26" as="geometry" />
        </mxCell>
        <mxCell id="J7jY-KrecQ0L_YbWV4ig-6" value="- senha: String" style="text;strokeColor=none;fillColor=none;align=left;verticalAlign=top;spacingLeft=4;spacingRight=4;overflow=hidden;rotatable=0;points=[[0,0.5],[1,0.5]];portConstraint=eastwest;" parent="J7jY-KrecQ0L_YbWV4ig-2" vertex="1">
          <mxGeometry y="52" width="200" height="26" as="geometry" />
        </mxCell>
        <mxCell id="J7jY-KrecQ0L_YbWV4ig-4" value="" style="line;strokeWidth=1;fillColor=none;align=left;verticalAlign=middle;spacingTop=-1;spacingLeft=3;spacingRight=3;rotatable=0;labelPosition=right;points=[];portConstraint=eastwest;" parent="J7jY-KrecQ0L_YbWV4ig-2" vertex="1">
          <mxGeometry y="78" width="200" height="8" as="geometry" />
        </mxCell>
        <mxCell id="J7jY-KrecQ0L_YbWV4ig-7" value="+ login(nome,senha):void" style="text;strokeColor=none;fillColor=none;align=left;verticalAlign=top;spacingLeft=4;spacingRight=4;overflow=hidden;rotatable=0;points=[[0,0.5],[1,0.5]];portConstraint=eastwest;" parent="J7jY-KrecQ0L_YbWV4ig-2" vertex="1">
          <mxGeometry y="86" width="200" height="26" as="geometry" />
        </mxCell>
        <mxCell id="J7jY-KrecQ0L_YbWV4ig-8" value="+ logout():void" style="text;strokeColor=none;fillColor=none;align=left;verticalAlign=top;spacingLeft=4;spacingRight=4;overflow=hidden;rotatable=0;points=[[0,0.5],[1,0.5]];portConstraint=eastwest;" parent="J7jY-KrecQ0L_YbWV4ig-2" vertex="1">
          <mxGeometry y="112" width="200" height="26" as="geometry" />
        </mxCell>
        <mxCell id="J7jY-KrecQ0L_YbWV4ig-10" value="Aluno" style="swimlane;fontStyle=0;childLayout=stackLayout;horizontal=1;startSize=26;fillColor=none;horizontalStack=0;resizeParent=1;resizeParentMax=0;resizeLast=0;collapsible=1;marginBottom=0;" parent="WIyWlLk6GJQsqaUBKTNV-1" vertex="1">
          <mxGeometry x="-280" y="200" width="260" height="112" as="geometry" />
        </mxCell>
        <mxCell id="J7jY-KrecQ0L_YbWV4ig-14" value="Extends" style="endArrow=block;endSize=16;endFill=0;html=1;" parent="J7jY-KrecQ0L_YbWV4ig-10" target="J7jY-KrecQ0L_YbWV4ig-2" edge="1">
          <mxGeometry width="160" relative="1" as="geometry">
            <mxPoint x="100" as="sourcePoint" />
            <mxPoint x="260" as="targetPoint" />
          </mxGeometry>
        </mxCell>
        <mxCell id="J7jY-KrecQ0L_YbWV4ig-11" value="- entrada: String" style="text;strokeColor=none;fillColor=none;align=left;verticalAlign=top;spacingLeft=4;spacingRight=4;overflow=hidden;rotatable=0;points=[[0,0.5],[1,0.5]];portConstraint=eastwest;" parent="J7jY-KrecQ0L_YbWV4ig-10" vertex="1">
          <mxGeometry y="26" width="260" height="26" as="geometry" />
        </mxCell>
        <mxCell id="J7jY-KrecQ0L_YbWV4ig-30" value="" style="line;strokeWidth=1;fillColor=none;align=left;verticalAlign=middle;spacingTop=-1;spacingLeft=3;spacingRight=3;rotatable=0;labelPosition=right;points=[];portConstraint=eastwest;" parent="J7jY-KrecQ0L_YbWV4ig-10" vertex="1">
          <mxGeometry y="52" width="260" height="8" as="geometry" />
        </mxCell>
        <mxCell id="J7jY-KrecQ0L_YbWV4ig-12" value="+ matricular(Disciplina):void" style="text;strokeColor=none;fillColor=none;align=left;verticalAlign=top;spacingLeft=4;spacingRight=4;overflow=hidden;rotatable=0;points=[[0,0.5],[1,0.5]];portConstraint=eastwest;" parent="J7jY-KrecQ0L_YbWV4ig-10" vertex="1">
          <mxGeometry y="60" width="260" height="26" as="geometry" />
        </mxCell>
        <mxCell id="etLlRxerB0H_tUxlvrYa-11" value="+ desistir(Disciplina):void&#xa;" style="text;strokeColor=none;fillColor=none;align=left;verticalAlign=top;spacingLeft=4;spacingRight=4;overflow=hidden;rotatable=0;points=[[0,0.5],[1,0.5]];portConstraint=eastwest;" parent="J7jY-KrecQ0L_YbWV4ig-10" vertex="1">
          <mxGeometry y="86" width="260" height="26" as="geometry" />
        </mxCell>
        <mxCell id="J7jY-KrecQ0L_YbWV4ig-21" value="Professor" style="swimlane;fontStyle=1;align=center;verticalAlign=top;childLayout=stackLayout;horizontal=1;startSize=26;horizontalStack=0;resizeParent=1;resizeParentMax=0;resizeLast=0;collapsible=1;marginBottom=0;" parent="WIyWlLk6GJQsqaUBKTNV-1" vertex="1">
          <mxGeometry x="440" y="200" width="220" height="138" as="geometry" />
        </mxCell>
        <mxCell id="J7jY-KrecQ0L_YbWV4ig-22" value="-disciplina: Disciplina" style="text;strokeColor=none;fillColor=none;align=left;verticalAlign=top;spacingLeft=4;spacingRight=4;overflow=hidden;rotatable=0;points=[[0,0.5],[1,0.5]];portConstraint=eastwest;" parent="J7jY-KrecQ0L_YbWV4ig-21" vertex="1">
          <mxGeometry y="26" width="220" height="26" as="geometry" />
        </mxCell>
        <mxCell id="J7jY-KrecQ0L_YbWV4ig-23" value="" style="line;strokeWidth=1;fillColor=none;align=left;verticalAlign=middle;spacingTop=-1;spacingLeft=3;spacingRight=3;rotatable=0;labelPosition=right;points=[];portConstraint=eastwest;" parent="J7jY-KrecQ0L_YbWV4ig-21" vertex="1">
          <mxGeometry y="52" width="220" height="8" as="geometry" />
        </mxCell>
        <mxCell id="J7jY-KrecQ0L_YbWV4ig-24" value="+ darNota(Aluno,Double,int):void" style="text;strokeColor=none;fillColor=none;align=left;verticalAlign=top;spacingLeft=4;spacingRight=4;overflow=hidden;rotatable=0;points=[[0,0.5],[1,0.5]];portConstraint=eastwest;" parent="J7jY-KrecQ0L_YbWV4ig-21" vertex="1">
          <mxGeometry y="60" width="220" height="26" as="geometry" />
        </mxCell>
        <mxCell id="J7jY-KrecQ0L_YbWV4ig-33" value="+ darFalta(Aluno):void" style="text;strokeColor=none;fillColor=none;align=left;verticalAlign=top;spacingLeft=4;spacingRight=4;overflow=hidden;rotatable=0;points=[[0,0.5],[1,0.5]];portConstraint=eastwest;" parent="J7jY-KrecQ0L_YbWV4ig-21" vertex="1">
          <mxGeometry y="86" width="220" height="26" as="geometry" />
        </mxCell>
        <mxCell id="etLlRxerB0H_tUxlvrYa-8" value="+ tirarFalta(Aluno):void" style="text;strokeColor=none;fillColor=none;align=left;verticalAlign=top;spacingLeft=4;spacingRight=4;overflow=hidden;rotatable=0;points=[[0,0.5],[1,0.5]];portConstraint=eastwest;" parent="J7jY-KrecQ0L_YbWV4ig-21" vertex="1">
          <mxGeometry y="112" width="220" height="26" as="geometry" />
        </mxCell>
        <mxCell id="J7jY-KrecQ0L_YbWV4ig-25" value="Extends" style="endArrow=block;endSize=16;endFill=0;html=1;" parent="WIyWlLk6GJQsqaUBKTNV-1" source="J7jY-KrecQ0L_YbWV4ig-21" target="J7jY-KrecQ0L_YbWV4ig-2" edge="1">
          <mxGeometry width="160" relative="1" as="geometry">
            <mxPoint x="330" y="430" as="sourcePoint" />
            <mxPoint x="490" y="430" as="targetPoint" />
          </mxGeometry>
        </mxCell>
        <mxCell id="J7jY-KrecQ0L_YbWV4ig-34" value="Coordenação" style="swimlane;fontStyle=1;align=center;verticalAlign=top;childLayout=stackLayout;horizontal=1;startSize=26;horizontalStack=0;resizeParent=1;resizeParentMax=0;resizeLast=0;collapsible=1;marginBottom=0;" parent="WIyWlLk6GJQsqaUBKTNV-1" vertex="1">
          <mxGeometry x="440" y="20" width="250" height="108" as="geometry" />
        </mxCell>
        <mxCell id="J7jY-KrecQ0L_YbWV4ig-35" value="-departamento: String" style="text;strokeColor=none;fillColor=none;align=left;verticalAlign=top;spacingLeft=4;spacingRight=4;overflow=hidden;rotatable=0;points=[[0,0.5],[1,0.5]];portConstraint=eastwest;" parent="J7jY-KrecQ0L_YbWV4ig-34" vertex="1">
          <mxGeometry y="26" width="250" height="22" as="geometry" />
        </mxCell>
        <mxCell id="J7jY-KrecQ0L_YbWV4ig-36" value="" style="line;strokeWidth=1;fillColor=none;align=left;verticalAlign=middle;spacingTop=-1;spacingLeft=3;spacingRight=3;rotatable=0;labelPosition=right;points=[];portConstraint=eastwest;" parent="J7jY-KrecQ0L_YbWV4ig-34" vertex="1">
          <mxGeometry y="48" width="250" height="8" as="geometry" />
        </mxCell>
        <mxCell id="etLlRxerB0H_tUxlvrYa-9" value="+ tirarFalta(Aluno, Disciplina):void" style="text;strokeColor=none;fillColor=none;align=left;verticalAlign=top;spacingLeft=4;spacingRight=4;overflow=hidden;rotatable=0;points=[[0,0.5],[1,0.5]];portConstraint=eastwest;" parent="J7jY-KrecQ0L_YbWV4ig-34" vertex="1">
          <mxGeometry y="56" width="250" height="26" as="geometry" />
        </mxCell>
        <mxCell id="etLlRxerB0H_tUxlvrYa-7" value="+ darNota(Disciplina,Aluno,Double):void" style="text;strokeColor=none;fillColor=none;align=left;verticalAlign=top;spacingLeft=4;spacingRight=4;overflow=hidden;rotatable=0;points=[[0,0.5],[1,0.5]];portConstraint=eastwest;" parent="J7jY-KrecQ0L_YbWV4ig-34" vertex="1">
          <mxGeometry y="82" width="250" height="26" as="geometry" />
        </mxCell>
        <mxCell id="J7jY-KrecQ0L_YbWV4ig-38" value="AlunoMatriculado" style="swimlane;fontStyle=0;childLayout=stackLayout;horizontal=1;startSize=26;fillColor=none;horizontalStack=0;resizeParent=1;resizeParentMax=0;resizeLast=0;collapsible=1;marginBottom=0;" parent="WIyWlLk6GJQsqaUBKTNV-1" vertex="1">
          <mxGeometry y="370" width="140" height="130" as="geometry" />
        </mxCell>
        <mxCell id="J7jY-KrecQ0L_YbWV4ig-48" value="- aluno: Aluno" style="text;strokeColor=none;fillColor=none;align=left;verticalAlign=top;spacingLeft=4;spacingRight=4;overflow=hidden;rotatable=0;points=[[0,0.5],[1,0.5]];portConstraint=eastwest;" parent="J7jY-KrecQ0L_YbWV4ig-38" vertex="1">
          <mxGeometry y="26" width="140" height="26" as="geometry" />
        </mxCell>
        <mxCell id="J7jY-KrecQ0L_YbWV4ig-39" value="- notas: float[]" style="text;strokeColor=none;fillColor=none;align=left;verticalAlign=top;spacingLeft=4;spacingRight=4;overflow=hidden;rotatable=0;points=[[0,0.5],[1,0.5]];portConstraint=eastwest;" parent="J7jY-KrecQ0L_YbWV4ig-38" vertex="1">
          <mxGeometry y="52" width="140" height="26" as="geometry" />
        </mxCell>
        <mxCell id="J7jY-KrecQ0L_YbWV4ig-40" value="- faltas: int" style="text;strokeColor=none;fillColor=none;align=left;verticalAlign=top;spacingLeft=4;spacingRight=4;overflow=hidden;rotatable=0;points=[[0,0.5],[1,0.5]];portConstraint=eastwest;" parent="J7jY-KrecQ0L_YbWV4ig-38" vertex="1">
          <mxGeometry y="78" width="140" height="26" as="geometry" />
        </mxCell>
        <mxCell id="1CIa0npkpDyvRn3adV5U-0" value="-disciplina: Disciplina" style="text;strokeColor=none;fillColor=none;align=left;verticalAlign=top;spacingLeft=4;spacingRight=4;overflow=hidden;rotatable=0;points=[[0,0.5],[1,0.5]];portConstraint=eastwest;" parent="J7jY-KrecQ0L_YbWV4ig-38" vertex="1">
          <mxGeometry y="104" width="140" height="26" as="geometry" />
        </mxCell>
        <mxCell id="etLlRxerB0H_tUxlvrYa-5" value="Extends" style="endArrow=block;endSize=16;endFill=0;html=1;" parent="WIyWlLk6GJQsqaUBKTNV-1" source="J7jY-KrecQ0L_YbWV4ig-34" target="J7jY-KrecQ0L_YbWV4ig-2" edge="1">
          <mxGeometry width="160" relative="1" as="geometry">
            <mxPoint x="340" y="90" as="sourcePoint" />
            <mxPoint x="500" y="90" as="targetPoint" />
          </mxGeometry>
        </mxCell>
        <mxCell id="2h8bxDQBClR8IhnuQK0--4" value="Disciplina" style="swimlane;fontStyle=0;childLayout=stackLayout;horizontal=1;startSize=26;fillColor=none;horizontalStack=0;resizeParent=1;resizeParentMax=0;resizeLast=0;collapsible=1;marginBottom=0;" vertex="1" parent="WIyWlLk6GJQsqaUBKTNV-1">
          <mxGeometry x="150" y="200" width="140" height="104" as="geometry" />
        </mxCell>
        <mxCell id="2h8bxDQBClR8IhnuQK0--5" value="- nome: String" style="text;strokeColor=none;fillColor=none;align=left;verticalAlign=top;spacingLeft=4;spacingRight=4;overflow=hidden;rotatable=0;points=[[0,0.5],[1,0.5]];portConstraint=eastwest;" vertex="1" parent="2h8bxDQBClR8IhnuQK0--4">
          <mxGeometry y="26" width="140" height="26" as="geometry" />
        </mxCell>
        <mxCell id="2h8bxDQBClR8IhnuQK0--6" value="-aulasTotais:int" style="text;strokeColor=none;fillColor=none;align=left;verticalAlign=top;spacingLeft=4;spacingRight=4;overflow=hidden;rotatable=0;points=[[0,0.5],[1,0.5]];portConstraint=eastwest;" vertex="1" parent="2h8bxDQBClR8IhnuQK0--4">
          <mxGeometry y="52" width="140" height="26" as="geometry" />
        </mxCell>
        <mxCell id="2h8bxDQBClR8IhnuQK0--7" value="-vagas: int" style="text;strokeColor=none;fillColor=none;align=left;verticalAlign=top;spacingLeft=4;spacingRight=4;overflow=hidden;rotatable=0;points=[[0,0.5],[1,0.5]];portConstraint=eastwest;" vertex="1" parent="2h8bxDQBClR8IhnuQK0--4">
          <mxGeometry y="78" width="140" height="26" as="geometry" />
        </mxCell>
        <mxCell id="2h8bxDQBClR8IhnuQK0--11" value="" style="endArrow=diamondThin;endFill=1;endSize=24;html=1;" edge="1" parent="WIyWlLk6GJQsqaUBKTNV-1" source="J7jY-KrecQ0L_YbWV4ig-38" target="2h8bxDQBClR8IhnuQK0--4">
          <mxGeometry width="160" relative="1" as="geometry">
            <mxPoint x="230" y="390" as="sourcePoint" />
            <mxPoint x="390" y="390" as="targetPoint" />
          </mxGeometry>
        </mxCell>
        <mxCell id="2h8bxDQBClR8IhnuQK0--12" value="" style="endArrow=diamondThin;endFill=1;endSize=24;html=1;" edge="1" parent="WIyWlLk6GJQsqaUBKTNV-1" source="J7jY-KrecQ0L_YbWV4ig-38" target="J7jY-KrecQ0L_YbWV4ig-10">
          <mxGeometry width="160" relative="1" as="geometry">
            <mxPoint x="-130.00131147540992" y="416" as="sourcePoint" />
            <mxPoint x="-75.90295081967201" y="350" as="targetPoint" />
          </mxGeometry>
        </mxCell>
        <mxCell id="2h8bxDQBClR8IhnuQK0--16" value="1" style="endArrow=open;html=1;endSize=12;startArrow=diamondThin;startSize=14;startFill=0;edgeStyle=orthogonalEdgeStyle;align=left;verticalAlign=bottom;" edge="1" parent="WIyWlLk6GJQsqaUBKTNV-1" source="J7jY-KrecQ0L_YbWV4ig-21" target="2h8bxDQBClR8IhnuQK0--4">
          <mxGeometry x="-1" y="3" relative="1" as="geometry">
            <mxPoint x="310" y="380" as="sourcePoint" />
            <mxPoint x="470" y="380" as="targetPoint" />
          </mxGeometry>
        </mxCell>
      </root>
    </mxGraphModel>
  </diagram>
</mxfile>
